<svg fill="#fc7e0f" height="100" viewBox="0 0 100 100" width="100" xmlns="http://www.w3.org/2000/svg"><path d="m23.73975 4.99976 2.82617 2.831a33.0959 33.0959 0 0 0 0 46.86377l-2.82617 2.831a37.09679 37.09679 0 0 1 0-52.52587zm49.69433 2.831a33.0959 33.0959 0 0 1 0 46.86377l2.82617 2.831a37.09679 37.09679 0 0 0 0-52.52587zm-41.17529 5.69097a25.06108 25.06108 0 0 0 0 35.48193l2.82812-2.82812a21.06257 21.06257 0 0 1 0-29.82569zm35.48193 35.48193a25.0599 25.0599 0 0 0 0-35.48193l-2.82812 2.82812a21.06139 21.06139 0 0 1 0 29.82569zm-41.27343 42.66504 17.78521-50.42181a11.52875 11.52875 0 1 1 11.49488-.00006l17.78485 50.42187a2.4998 2.4998 0 0 1 -4.07813 2.645l-19.45459-18.45652-19.4541 18.45654a2.49975 2.49975 0 0 1 -4.07812-2.645zm33.01371-24.80615-5.84864 5.54883 11.73141 11.12988zm-17.14067-5.16406 7.65967 7.2666 7.65918-7.2666-6.686-18.95612c-.3216.027-.64472.04913-.97333.04913s-.65161-.02221-.97315-.04913zm-7.70459 21.84277 11.73145-11.12988-5.84819-5.54883z"/></svg>