<svg height="100px" width="100px" fill="#fc7e0f" xmlns="http://www.w3.org/2000/svg" viewBox="0 0 100 100" x="0px" y="0px"><path d="M23.73975,4.99976l2.82617,2.831a33.0959,33.0959,0,0,0,0,46.86377l-2.82617,2.831a37.09679,37.09679,0,0,1,0-52.52587Zm49.69433,2.831a33.0959,33.0959,0,0,1,0,46.86377l2.82617,2.831a37.09679,37.09679,0,0,0,0-52.52587ZM32.25879,13.52173a25.06108,25.06108,0,0,0,0,35.48193l2.82812-2.82812a21.06257,21.06257,0,0,1,0-29.82569ZM67.74072,49.00366a25.0599,25.0599,0,0,0,0-35.48193L64.9126,16.34985a21.06139,21.06139,0,0,1,0,29.82569ZM26.46729,91.6687,44.2525,41.24689a11.52875,11.52875,0,1,1,11.49488-.00006L73.53223,91.6687a2.4998,2.4998,0,0,1-4.07813,2.645L49.99951,75.85718,30.54541,94.31372a2.49975,2.49975,0,0,1-4.07812-2.645ZM59.481,66.86255l-5.84864,5.54883L65.36377,83.54126ZM42.34033,61.69849,50,68.96509l7.65918-7.2666-6.686-18.95612c-.3216.027-.64472.04913-.97333.04913s-.65161-.02221-.97315-.04913ZM34.63574,83.54126,46.36719,72.41138,40.519,66.86255Z"></path></svg>
